G04 #@! TF.FileFunction,Copper,L2,Bot,Signal*
%FSLAX46Y46*%
G04 Gerber Fmt 4.6, Leading zero omitted, Abs format (unit mm)*
G04 Created by KiCad (PCBNEW 4.0.3+e1-6302~38~ubuntu14.04.1-stable) date Wed Aug 31 10:57:53 2016*
%MOMM*%
%LPD*%
G01*
G04 APERTURE LIST*
%ADD10C,0.150000*%
%ADD11R,8.890000X1.270000*%
%ADD12R,10.160000X1.270000*%
%ADD13C,2.032000*%
%ADD14C,0.635000*%
%ADD15C,0.228600*%
G04 APERTURE END LIST*
D10*
D11*
X53340000Y-30784800D03*
X53340000Y-32956500D03*
D12*
X53340000Y-28067000D03*
X53340000Y-35687000D03*
D13*
X47574200Y-35864800D03*
X47574200Y-28067000D03*
D14*
X53644800Y-29464000D03*
X58521600Y-32054800D03*
X51689000Y-29464000D03*
X50063400Y-36753800D03*
X50419000Y-35331400D03*
X57607200Y-31140400D03*
X58064400Y-34391600D03*
X48971200Y-34264600D03*
X50419000Y-28651200D03*
X55219600Y-34137600D03*
X48641000Y-28702000D03*
X52882800Y-34340800D03*
X54152800Y-27584400D03*
X56896000Y-28803600D03*
X57150000Y-37388800D03*
X54610000Y-36880800D03*
X52679600Y-26466800D03*
X49085500Y-26479500D03*
D15*
X58318400Y-31851600D02*
X58521600Y-32054800D01*
X53644800Y-29464000D02*
X57912000Y-29464000D01*
X57912000Y-29464000D02*
X58521600Y-30073600D01*
X58521600Y-30073600D02*
X58521600Y-32054800D01*
X53644800Y-29464000D02*
X51689000Y-29464000D01*
X47574200Y-35864800D02*
X47752000Y-35687000D01*
X47752000Y-35687000D02*
X53340000Y-35687000D01*
X50101500Y-36576000D02*
X50063400Y-36614100D01*
X50063400Y-36614100D02*
X50063400Y-36753800D01*
X50419000Y-35331400D02*
X52984400Y-35331400D01*
X52984400Y-35331400D02*
X53340000Y-35687000D01*
X50977800Y-35687000D02*
X53340000Y-35687000D01*
X53314600Y-35712400D02*
X53340000Y-35687000D01*
X50101500Y-36576000D02*
X50990500Y-35687000D01*
X50990500Y-35687000D02*
X53340000Y-35687000D01*
X57607200Y-31140400D02*
X57251600Y-30784800D01*
X57251600Y-30784800D02*
X53340000Y-30784800D01*
X56654700Y-30784800D02*
X53340000Y-30784800D01*
X58064400Y-34391600D02*
X56629300Y-32956500D01*
X56629300Y-32956500D02*
X53340000Y-32956500D01*
X56769000Y-32956500D02*
X53340000Y-32956500D01*
X57594500Y-32956500D02*
X53340000Y-32956500D01*
X56515000Y-32956500D02*
X53340000Y-32956500D01*
X48539400Y-31826200D02*
X48615600Y-31826200D01*
X48615600Y-31826200D02*
X48641000Y-31851600D01*
X48641000Y-31851600D02*
X56946800Y-31851600D01*
X48971200Y-34264600D02*
X48945295Y-34238695D01*
X48945295Y-34238695D02*
X48945295Y-34162007D01*
X53340000Y-28067000D02*
X49276000Y-28067000D01*
X49276000Y-28067000D02*
X48539400Y-28803600D01*
X48539400Y-28803600D02*
X48539400Y-31826200D01*
X48539400Y-31826200D02*
X48539400Y-33909000D01*
X48539400Y-33909000D02*
X48793400Y-34163000D01*
X50419000Y-28651200D02*
X51003200Y-28067000D01*
X51003200Y-28067000D02*
X53340000Y-28067000D01*
X55219600Y-34137600D02*
X56413400Y-34137600D01*
X56413400Y-34137600D02*
X56540400Y-34264600D01*
X52882800Y-34340800D02*
X55016400Y-34340800D01*
X55016400Y-34340800D02*
X55219600Y-34137600D01*
X48641000Y-28702000D02*
X50266600Y-28067000D01*
X50266600Y-28067000D02*
X53340000Y-28067000D01*
X52679600Y-34137600D02*
X52882800Y-34340800D01*
X48793400Y-34163000D02*
X48945295Y-34162007D01*
X48945295Y-34162007D02*
X52679600Y-34137600D01*
X50012600Y-28067000D02*
X53340000Y-28067000D01*
X47599600Y-29006800D02*
X46837600Y-28244800D01*
X46837600Y-28244800D02*
X53162200Y-28244800D01*
X53162200Y-28244800D02*
X53340000Y-28067000D01*
X54152800Y-27584400D02*
X53670200Y-28067000D01*
X53670200Y-28067000D02*
X53340000Y-28067000D01*
X56896000Y-28803600D02*
X56159400Y-28067000D01*
X56159400Y-28067000D02*
X53340000Y-28067000D01*
X49911000Y-28067000D02*
X53340000Y-28067000D01*
X50482500Y-28194000D02*
X50609500Y-28067000D01*
X50609500Y-28067000D02*
X53340000Y-28067000D01*
X52959000Y-28067000D02*
X52070000Y-28067000D01*
X57150000Y-37388800D02*
X56642000Y-36880800D01*
X56642000Y-36880800D02*
X54610000Y-36880800D01*
X49174400Y-26466800D02*
X49479200Y-26466800D01*
X52679600Y-26466800D02*
X49479200Y-26466800D01*
X49174400Y-26466800D02*
X49123600Y-26466800D01*
M02*
