G04 #@! TF.FileFunction,Copper,L1,Top,Signal*
%FSLAX46Y46*%
G04 Gerber Fmt 4.6, Leading zero omitted, Abs format (unit mm)*
G04 Created by KiCad (PCBNEW 4.0.3+e1-6302~38~ubuntu14.04.1-stable) date Wed Aug 31 00:15:06 2016*
%MOMM*%
%LPD*%
G01*
G04 APERTURE LIST*
%ADD10C,0.150000*%
%ADD11R,1.400000X0.500000*%
%ADD12R,1.143000X0.635000*%
%ADD13R,0.254000X0.762000*%
%ADD14R,0.762000X0.254000*%
%ADD15R,2.999740X2.999740*%
%ADD16R,0.700000X0.700000*%
%ADD17C,2.032000*%
%ADD18C,1.651000*%
%ADD19R,0.762000X0.508000*%
%ADD20C,1.280000*%
%ADD21R,0.599440X0.398780*%
%ADD22R,0.398780X0.599440*%
%ADD23R,0.635000X1.143000*%
%ADD24C,0.635000*%
%ADD25C,0.228600*%
G04 APERTURE END LIST*
D10*
D11*
X47193200Y-30429400D03*
X47193200Y-33629400D03*
D12*
X49631600Y-28625800D03*
X49631600Y-30149800D03*
D13*
X52915820Y-30457140D03*
X53416200Y-30457140D03*
X53916580Y-30457140D03*
X52415440Y-30457140D03*
D14*
X51666140Y-31206440D03*
X51666140Y-31706820D03*
X51666140Y-32207200D03*
X51666140Y-32707580D03*
X51666140Y-33205420D03*
X51666140Y-33705800D03*
X51666140Y-34206180D03*
X51666140Y-34706560D03*
D13*
X55915560Y-35455860D03*
X52415440Y-35455860D03*
X52915820Y-35455860D03*
X53416200Y-35455860D03*
X53916580Y-35455860D03*
X54414420Y-35455860D03*
X54914800Y-35455860D03*
X55415180Y-35455860D03*
D14*
X56664860Y-34706560D03*
X56664860Y-34206180D03*
X56664860Y-33705800D03*
X56664860Y-33205420D03*
X56664860Y-32707580D03*
X56664860Y-32207200D03*
X56664860Y-31706820D03*
X56664860Y-31206440D03*
D13*
X55915560Y-30457140D03*
X55415180Y-30457140D03*
X54914800Y-30457140D03*
X54414420Y-30457140D03*
D15*
X54165500Y-32956500D03*
D16*
X54724400Y-28692400D03*
X56324400Y-27492400D03*
X54724400Y-27492400D03*
X56324400Y-28692400D03*
D17*
X50749200Y-27127200D03*
X48437800Y-27127200D03*
D18*
X57962800Y-36830000D03*
D19*
X49504600Y-36944300D03*
X49504600Y-35039300D03*
X46964600Y-36944300D03*
X49504600Y-35991800D03*
X46964600Y-35039300D03*
D20*
X50368200Y-33223200D03*
D21*
X53644800Y-28592780D03*
X53644800Y-27693620D03*
X57404000Y-28541980D03*
X57404000Y-27642820D03*
D22*
X52585620Y-36677600D03*
X53484780Y-36677600D03*
D21*
X52578000Y-27693620D03*
X52578000Y-28592780D03*
D22*
X56393080Y-36830000D03*
X55493920Y-36830000D03*
D21*
X58064400Y-33571180D03*
X58064400Y-32672020D03*
D22*
X51655980Y-36677600D03*
X50756820Y-36677600D03*
D23*
X48539400Y-31292800D03*
X50063400Y-31292800D03*
D24*
X53644800Y-29464000D03*
X58521600Y-32054800D03*
X51689000Y-29464000D03*
X50063400Y-36753800D03*
X50419000Y-35331400D03*
X57607200Y-31140400D03*
X58064400Y-34391600D03*
X48971200Y-34264600D03*
X50419000Y-28651200D03*
X55219600Y-34137600D03*
X48641000Y-28702000D03*
X52882800Y-34340800D03*
X54152800Y-27584400D03*
X56896000Y-28803600D03*
X57150000Y-37388800D03*
X54610000Y-36880800D03*
X52679600Y-26466800D03*
X49085500Y-26479500D03*
D25*
X49631600Y-30149800D02*
X49555400Y-30149800D01*
X49555400Y-30149800D02*
X49301400Y-30403800D01*
X49301400Y-30403800D02*
X49301400Y-32029400D01*
X49301400Y-32029400D02*
X49517300Y-32245300D01*
X49517300Y-32245300D02*
X49517300Y-32207200D01*
X51666140Y-31206440D02*
X51399440Y-31206440D01*
X51399440Y-31206440D02*
X50342800Y-30149800D01*
X49631600Y-30149800D02*
X50342800Y-30149800D01*
X50342800Y-30149800D02*
X51003200Y-30149800D01*
X51003200Y-30149800D02*
X51689000Y-29464000D01*
X48437800Y-33731200D02*
X48437800Y-33832800D01*
X47929800Y-36017200D02*
X47650400Y-36296600D01*
X47650400Y-36296600D02*
X47307500Y-36639500D01*
X47929800Y-34340800D02*
X47929800Y-36017200D01*
X48437800Y-33832800D02*
X47929800Y-34340800D01*
X48564800Y-33604200D02*
X48437800Y-33731200D01*
X48437800Y-33731200D02*
X48456850Y-33712150D01*
X47307500Y-36639500D02*
X47028100Y-36918900D01*
X47028100Y-36918900D02*
X46939200Y-36918900D01*
X58115200Y-35102800D02*
X57505600Y-35712400D01*
X58724800Y-34696400D02*
X58318400Y-35102800D01*
X58318400Y-35102800D02*
X58115200Y-35102800D01*
X58724800Y-34340800D02*
X58724800Y-34696400D01*
X56393080Y-36062920D02*
X56393080Y-36830000D01*
X56743600Y-35712400D02*
X56393080Y-36062920D01*
X57505600Y-35712400D02*
X56743600Y-35712400D01*
X56393080Y-36824920D02*
X56393080Y-36830000D01*
X51666140Y-32207200D02*
X49517300Y-32207200D01*
X49517300Y-32207200D02*
X49555400Y-32207200D01*
X51666140Y-32707580D02*
X51666140Y-32207200D01*
X47307500Y-36639500D02*
X47358300Y-36639500D01*
X48260000Y-37541200D02*
X53644800Y-37541200D01*
X47358300Y-36639500D02*
X48260000Y-37541200D01*
X53484780Y-36677600D02*
X53484780Y-37193220D01*
X53484780Y-37193220D02*
X53416200Y-37261800D01*
X53416200Y-35455860D02*
X53416200Y-37261800D01*
X53416200Y-37261800D02*
X53416200Y-37312600D01*
X53416200Y-37312600D02*
X53644800Y-37541200D01*
X56393080Y-37332920D02*
X56393080Y-36830000D01*
X56184800Y-37541200D02*
X56393080Y-37332920D01*
X53644800Y-37541200D02*
X56184800Y-37541200D01*
X51666140Y-34206180D02*
X50850800Y-34206180D01*
X53916580Y-30457140D02*
X53916580Y-29735780D01*
X53916580Y-29735780D02*
X53644800Y-29464000D01*
X53416200Y-30457140D02*
X53416200Y-29692600D01*
X53416200Y-29692600D02*
X53644800Y-29464000D01*
X52415440Y-30457140D02*
X52425600Y-30446980D01*
X52425600Y-30446980D02*
X52425600Y-30200600D01*
X52425600Y-30200600D02*
X51689000Y-29464000D01*
X58420000Y-32773620D02*
X58420000Y-32156400D01*
X58420000Y-32156400D02*
X58521600Y-32054800D01*
X58064400Y-32773620D02*
X58420000Y-32773620D01*
X58420000Y-32773620D02*
X58681620Y-32773620D01*
X58681620Y-32773620D02*
X58724800Y-32816800D01*
X58724800Y-32816800D02*
X58724800Y-34340800D01*
X58724800Y-34340800D02*
X58724800Y-34290000D01*
X56664860Y-34706560D02*
X57177940Y-34706560D01*
X57467500Y-32893000D02*
X57409080Y-32951420D01*
X57536080Y-32824420D02*
X57912000Y-32824420D01*
X57467500Y-32893000D02*
X57536080Y-32824420D01*
X57404000Y-32956500D02*
X57409080Y-32951420D01*
X57404000Y-34480500D02*
X57404000Y-32956500D01*
X57177940Y-34706560D02*
X57404000Y-34480500D01*
X49326800Y-33604200D02*
X49326800Y-32435800D01*
X49326800Y-32435800D02*
X49555400Y-32207200D01*
X49326800Y-33604200D02*
X48564800Y-33604200D01*
X49987200Y-34206180D02*
X49928780Y-34206180D01*
X49928780Y-34206180D02*
X49326800Y-33604200D01*
X50850800Y-34206180D02*
X49987200Y-34206180D01*
X49987200Y-34206180D02*
X50012600Y-34206180D01*
X50012600Y-34206180D02*
X50055780Y-34206180D01*
X50850800Y-34206180D02*
X50868580Y-34206180D01*
X50444400Y-36639500D02*
X50330100Y-36753800D01*
X50330100Y-36753800D02*
X50063400Y-36753800D01*
X50063400Y-36753800D02*
X49644300Y-36753800D01*
X49644300Y-36753800D02*
X49479200Y-36918900D01*
X49479200Y-35013900D02*
X49796700Y-35331400D01*
X49796700Y-35331400D02*
X50419000Y-35331400D01*
X50858420Y-36639500D02*
X50444400Y-36639500D01*
X50444400Y-36639500D02*
X50165000Y-36639500D01*
X50165000Y-36639500D02*
X50101500Y-36576000D01*
X56664860Y-31206440D02*
X57541160Y-31206440D01*
X57541160Y-31206440D02*
X57607200Y-31140400D01*
X55915560Y-35455860D02*
X55984140Y-35455860D01*
X55984140Y-35455860D02*
X56235600Y-35204400D01*
X56235600Y-35204400D02*
X57353200Y-35204400D01*
X57353200Y-35204400D02*
X58064400Y-34493200D01*
X58064400Y-34493200D02*
X58064400Y-34391600D01*
X58102500Y-33660080D02*
X58102500Y-34353500D01*
X58102500Y-34353500D02*
X58064400Y-34391600D01*
X48590200Y-34899600D02*
X48590200Y-34645600D01*
X48590200Y-34645600D02*
X48971200Y-34264600D01*
X49631600Y-28625800D02*
X50393600Y-28625800D01*
X50393600Y-28625800D02*
X50419000Y-28651200D01*
X49555400Y-28727400D02*
X48666400Y-28727400D01*
X48666400Y-28727400D02*
X48641000Y-28702000D01*
X48742600Y-28600400D02*
X49428400Y-28600400D01*
X49428400Y-28600400D02*
X49555400Y-28727400D01*
X55219600Y-34137600D02*
X54165500Y-33083500D01*
X54165500Y-33083500D02*
X54165500Y-32956500D01*
X48590200Y-34899600D02*
X48577500Y-34912300D01*
X48577500Y-34912300D02*
X48539400Y-34950400D01*
X48539400Y-34950400D02*
X48539400Y-35712400D01*
X48539400Y-35712400D02*
X48793400Y-35966400D01*
X48793400Y-35966400D02*
X49479200Y-35966400D01*
X49479200Y-35966400D02*
X49504600Y-35991800D01*
X49504600Y-35991800D02*
X51155600Y-35991800D01*
X51155600Y-35991800D02*
X51460400Y-35687000D01*
X48488600Y-28854400D02*
X48742600Y-28600400D01*
X48742600Y-28600400D02*
X48641000Y-28702000D01*
X52882800Y-34340800D02*
X54165500Y-33058100D01*
X54165500Y-33058100D02*
X54165500Y-32956500D01*
X52527200Y-37033200D02*
X52527200Y-36736020D01*
X52527200Y-36736020D02*
X52585620Y-36677600D01*
X52585620Y-36677600D02*
X52585620Y-36482020D01*
X52585620Y-36482020D02*
X52324000Y-36220400D01*
X52534820Y-37033200D02*
X52527200Y-37033200D01*
X52527200Y-37033200D02*
X52151280Y-37033200D01*
X52151280Y-37033200D02*
X51757580Y-36639500D01*
X54203600Y-27441600D02*
X54203600Y-27533600D01*
X54203600Y-27533600D02*
X54152800Y-27584400D01*
X53644800Y-27693620D02*
X52578000Y-27693620D01*
X54724400Y-27441600D02*
X54203600Y-27441600D01*
X54203600Y-27441600D02*
X53896820Y-27441600D01*
X53896820Y-27441600D02*
X53644800Y-27693620D01*
X56324400Y-28641600D02*
X56734000Y-28641600D01*
X56734000Y-28641600D02*
X56896000Y-28803600D01*
X51460400Y-35687000D02*
X52184300Y-35687000D01*
X52184300Y-35687000D02*
X52415440Y-35455860D01*
X54414420Y-35455860D02*
X54414420Y-33205420D01*
X54414420Y-33205420D02*
X54165500Y-32956500D01*
X52915820Y-35455860D02*
X52915820Y-34206180D01*
X52915820Y-34206180D02*
X54165500Y-32956500D01*
X52415440Y-35455860D02*
X52915820Y-35455860D01*
X51996340Y-36400740D02*
X52143660Y-36400740D01*
X52143660Y-36400740D02*
X52324000Y-36220400D01*
X52324000Y-36220400D02*
X52415440Y-36128960D01*
X52415440Y-36128960D02*
X52415440Y-35455860D01*
X51757580Y-36639500D02*
X51996340Y-36400740D01*
X57353200Y-28491180D02*
X56474820Y-28491180D01*
X56474820Y-28491180D02*
X56324400Y-28641600D01*
X51460400Y-35687000D02*
X51523900Y-35687000D01*
X53995320Y-32964120D02*
X53746400Y-32715200D01*
X48539400Y-31292800D02*
X48539400Y-31089600D01*
X48539400Y-31089600D02*
X47879200Y-30429400D01*
X47879200Y-30429400D02*
X47193200Y-30429400D01*
X47320400Y-30454800D02*
X46736000Y-30454800D01*
X57962800Y-36830000D02*
X57708800Y-36830000D01*
X57708800Y-36830000D02*
X57150000Y-37388800D01*
X55493920Y-36830000D02*
X55415180Y-36751260D01*
X55415180Y-36751260D02*
X55415180Y-35455860D01*
X55493920Y-36830000D02*
X54660800Y-36830000D01*
X54660800Y-36830000D02*
X54610000Y-36880800D01*
X51666140Y-33705800D02*
X50927000Y-33705800D01*
X50927000Y-33705800D02*
X50444400Y-33223200D01*
X52915820Y-30457140D02*
X52915820Y-28930600D01*
X52915820Y-28930600D02*
X52578000Y-28592780D01*
X58166000Y-27228800D02*
X57708800Y-26771600D01*
X53797200Y-26771600D02*
X53848000Y-26771600D01*
X57658000Y-29667200D02*
X58166000Y-29159200D01*
X58166000Y-29159200D02*
X58166000Y-27228800D01*
X55415180Y-30457140D02*
X55415180Y-29878020D01*
X55626000Y-29667200D02*
X57150000Y-29667200D01*
X55415180Y-29878020D02*
X55626000Y-29667200D01*
X57150000Y-29667200D02*
X57658000Y-29667200D01*
X57658000Y-26771600D02*
X53848000Y-26771600D01*
X53441600Y-27127200D02*
X50647600Y-27127200D01*
X53441600Y-27127200D02*
X53797200Y-26771600D01*
X57708800Y-26771600D02*
X57658000Y-26771600D01*
X50647600Y-27127200D02*
X50622200Y-27127200D01*
X50622200Y-27127200D02*
X50609500Y-27114500D01*
X57985660Y-30457140D02*
X58623200Y-29819600D01*
X58623200Y-26517600D02*
X58369200Y-26263600D01*
X53086000Y-26466800D02*
X52679600Y-26466800D01*
X58318400Y-26263600D02*
X53289200Y-26263600D01*
X58623200Y-29718000D02*
X58623200Y-26619200D01*
X57985660Y-30457140D02*
X55915560Y-30457140D01*
X53289200Y-26263600D02*
X53086000Y-26466800D01*
X58369200Y-26263600D02*
X58318400Y-26263600D01*
X58623200Y-26619200D02*
X58623200Y-26517600D01*
X58623200Y-29819600D02*
X58623200Y-29718000D01*
X54414420Y-30457140D02*
X54414420Y-28951580D01*
X54414420Y-28951580D02*
X54724400Y-28641600D01*
X53644800Y-28592780D02*
X53693620Y-28641600D01*
X53693620Y-28641600D02*
X54724400Y-28641600D01*
X56324400Y-27441600D02*
X57202780Y-27441600D01*
X57202780Y-27441600D02*
X57353200Y-27592020D01*
X54914800Y-30457140D02*
X54914800Y-29718000D01*
X55768800Y-27441600D02*
X56324400Y-27441600D01*
X55524400Y-27686000D02*
X55768800Y-27441600D01*
X55524400Y-29108400D02*
X55524400Y-27686000D01*
X54914800Y-29718000D02*
X55524400Y-29108400D01*
X51666140Y-31706820D02*
X50368200Y-31706820D01*
X50368200Y-31706820D02*
X50208180Y-31546800D01*
M02*
