G04 #@! TF.FileFunction,Legend,Top*
%FSLAX46Y46*%
G04 Gerber Fmt 4.6, Leading zero omitted, Abs format (unit mm)*
G04 Created by KiCad (PCBNEW 4.0.3+e1-6302~38~ubuntu14.04.1-stable) date Wed Aug 31 00:15:06 2016*
%MOMM*%
%LPD*%
G01*
G04 APERTURE LIST*
%ADD10C,0.150000*%
%ADD11C,0.200000*%
%ADD12C,0.127000*%
%ADD13C,0.152400*%
%ADD14C,0.071120*%
%ADD15C,0.157480*%
G04 APERTURE END LIST*
D10*
D11*
X49784000Y-29311600D02*
X49784000Y-29819600D01*
X50292000Y-29819600D02*
X49784000Y-29311600D01*
X50800000Y-29819600D02*
X50292000Y-29819600D01*
X51054000Y-29565600D02*
X50800000Y-29819600D01*
X50800000Y-29311600D02*
X51054000Y-29565600D01*
X50292000Y-29311600D02*
X50800000Y-29311600D01*
X49784000Y-29819600D02*
X50292000Y-29311600D01*
X50292000Y-29311600D02*
X49784000Y-29819600D01*
X50800000Y-29311600D02*
X50292000Y-29311600D01*
X51054000Y-29565600D02*
X50800000Y-29311600D01*
X50800000Y-29819600D02*
X51054000Y-29565600D01*
X50292000Y-29819600D02*
X50800000Y-29819600D01*
X49784000Y-29311600D02*
X50292000Y-29819600D01*
X49784000Y-29819600D02*
X49784000Y-29311600D01*
D12*
X46355000Y-29489400D02*
X46355000Y-31140400D01*
X48031400Y-32918400D02*
X48031400Y-34569400D01*
X46355000Y-34569400D02*
X46355000Y-32918400D01*
X48031400Y-31140400D02*
X48031400Y-29489400D01*
X50266600Y-28244800D02*
X50266600Y-30530800D01*
X50266600Y-30530800D02*
X48996600Y-30530800D01*
X48996600Y-30530800D02*
X48996600Y-28244800D01*
X48996600Y-28244800D02*
X50266600Y-28244800D01*
D13*
X52070000Y-29908500D02*
X56261000Y-29908500D01*
X56261000Y-29908500D02*
X57213500Y-29908500D01*
X57213500Y-29908500D02*
X57213500Y-36004500D01*
X57213500Y-36004500D02*
X51117500Y-36004500D01*
X51117500Y-36004500D02*
X51117500Y-30861000D01*
X51117500Y-30861000D02*
X52070000Y-29908500D01*
D12*
X47345600Y-34467800D02*
X49123600Y-34467800D01*
X49123600Y-34467800D02*
X49123600Y-37515800D01*
X49123600Y-37515800D02*
X47345600Y-37515800D01*
X47345600Y-37515800D02*
X47345600Y-34467800D01*
D14*
X53263800Y-28397200D02*
X53263800Y-28905200D01*
X53263800Y-28905200D02*
X54025800Y-28905200D01*
X54025800Y-28905200D02*
X54025800Y-28397200D01*
X53263800Y-27889200D02*
X53263800Y-27381200D01*
X53263800Y-27381200D02*
X54025800Y-27381200D01*
X54025800Y-27381200D02*
X54025800Y-27889200D01*
X57023000Y-28346400D02*
X57023000Y-28854400D01*
X57023000Y-28854400D02*
X57785000Y-28854400D01*
X57785000Y-28854400D02*
X57785000Y-28346400D01*
X57023000Y-27838400D02*
X57023000Y-27330400D01*
X57023000Y-27330400D02*
X57785000Y-27330400D01*
X57785000Y-27330400D02*
X57785000Y-27838400D01*
X52781200Y-36296600D02*
X52273200Y-36296600D01*
X52273200Y-36296600D02*
X52273200Y-37058600D01*
X52273200Y-37058600D02*
X52781200Y-37058600D01*
X53289200Y-36296600D02*
X53797200Y-36296600D01*
X53797200Y-36296600D02*
X53797200Y-37058600D01*
X53797200Y-37058600D02*
X53289200Y-37058600D01*
X52959000Y-27889200D02*
X52959000Y-27381200D01*
X52959000Y-27381200D02*
X52197000Y-27381200D01*
X52197000Y-27381200D02*
X52197000Y-27889200D01*
X52959000Y-28397200D02*
X52959000Y-28905200D01*
X52959000Y-28905200D02*
X52197000Y-28905200D01*
X52197000Y-28905200D02*
X52197000Y-28397200D01*
X56197500Y-37211000D02*
X56705500Y-37211000D01*
X56705500Y-37211000D02*
X56705500Y-36449000D01*
X56705500Y-36449000D02*
X56197500Y-36449000D01*
X55689500Y-37211000D02*
X55181500Y-37211000D01*
X55181500Y-37211000D02*
X55181500Y-36449000D01*
X55181500Y-36449000D02*
X55689500Y-36449000D01*
X57683400Y-33375600D02*
X57683400Y-33883600D01*
X57683400Y-33883600D02*
X58445400Y-33883600D01*
X58445400Y-33883600D02*
X58445400Y-33375600D01*
X57683400Y-32867600D02*
X57683400Y-32359600D01*
X57683400Y-32359600D02*
X58445400Y-32359600D01*
X58445400Y-32359600D02*
X58445400Y-32867600D01*
X51460400Y-37058600D02*
X51968400Y-37058600D01*
X51968400Y-37058600D02*
X51968400Y-36296600D01*
X51968400Y-36296600D02*
X51460400Y-36296600D01*
X50952400Y-37058600D02*
X50444400Y-37058600D01*
X50444400Y-37058600D02*
X50444400Y-36296600D01*
X50444400Y-36296600D02*
X50952400Y-36296600D01*
D12*
X48158400Y-30657800D02*
X50444400Y-30657800D01*
X50444400Y-30657800D02*
X50444400Y-31927800D01*
X50444400Y-31927800D02*
X48158400Y-31927800D01*
X48158400Y-31927800D02*
X48158400Y-30657800D01*
D13*
X47218600Y-32573685D02*
X47218600Y-32210828D01*
X47436314Y-32646257D02*
X46674314Y-32392257D01*
X47436314Y-32138257D01*
X47436314Y-31485114D02*
X47436314Y-31920542D01*
X47436314Y-31702828D02*
X46674314Y-31702828D01*
X46783171Y-31775399D01*
X46855743Y-31847971D01*
X46892029Y-31920542D01*
X50927000Y-30625143D02*
X50890714Y-30661429D01*
X50781857Y-30697714D01*
X50709286Y-30697714D01*
X50600429Y-30661429D01*
X50527857Y-30588857D01*
X50491572Y-30516286D01*
X50455286Y-30371143D01*
X50455286Y-30262286D01*
X50491572Y-30117143D01*
X50527857Y-30044571D01*
X50600429Y-29972000D01*
X50709286Y-29935714D01*
X50781857Y-29935714D01*
X50890714Y-29972000D01*
X50927000Y-30008286D01*
X51580143Y-30189714D02*
X51580143Y-30697714D01*
X51398714Y-29899429D02*
X51217286Y-30443714D01*
X51689000Y-30443714D01*
X52149829Y-28995914D02*
X52149829Y-29612771D01*
X52186114Y-29685343D01*
X52222400Y-29721629D01*
X52294971Y-29757914D01*
X52440114Y-29757914D01*
X52512686Y-29721629D01*
X52548971Y-29685343D01*
X52585257Y-29612771D01*
X52585257Y-28995914D01*
X53347257Y-29757914D02*
X52911829Y-29757914D01*
X53129543Y-29757914D02*
X53129543Y-28995914D01*
X53056972Y-29104771D01*
X52984400Y-29177343D01*
X52911829Y-29213629D01*
X57922886Y-31793542D02*
X57886600Y-31866114D01*
X57850314Y-31902399D01*
X57777743Y-31938685D01*
X57741457Y-31938685D01*
X57668886Y-31902399D01*
X57632600Y-31866114D01*
X57596314Y-31793542D01*
X57596314Y-31648399D01*
X57632600Y-31575828D01*
X57668886Y-31539542D01*
X57741457Y-31503257D01*
X57777743Y-31503257D01*
X57850314Y-31539542D01*
X57886600Y-31575828D01*
X57922886Y-31648399D01*
X57922886Y-31793542D01*
X57959171Y-31866114D01*
X57995457Y-31902399D01*
X58068029Y-31938685D01*
X58213171Y-31938685D01*
X58285743Y-31902399D01*
X58322029Y-31866114D01*
X58358314Y-31793542D01*
X58358314Y-31648399D01*
X58322029Y-31575828D01*
X58285743Y-31539542D01*
X58213171Y-31503257D01*
X58068029Y-31503257D01*
X57995457Y-31539542D01*
X57959171Y-31575828D01*
X57922886Y-31648399D01*
X57668886Y-31212971D02*
X57632600Y-31176685D01*
X57596314Y-31104114D01*
X57596314Y-30922685D01*
X57632600Y-30850114D01*
X57668886Y-30813828D01*
X57741457Y-30777543D01*
X57814029Y-30777543D01*
X57922886Y-30813828D01*
X58358314Y-31249257D01*
X58358314Y-30777543D01*
X57922886Y-30342114D02*
X57886600Y-30414686D01*
X57850314Y-30450971D01*
X57777743Y-30487257D01*
X57741457Y-30487257D01*
X57668886Y-30450971D01*
X57632600Y-30414686D01*
X57596314Y-30342114D01*
X57596314Y-30196971D01*
X57632600Y-30124400D01*
X57668886Y-30088114D01*
X57741457Y-30051829D01*
X57777743Y-30051829D01*
X57850314Y-30088114D01*
X57886600Y-30124400D01*
X57922886Y-30196971D01*
X57922886Y-30342114D01*
X57959171Y-30414686D01*
X57995457Y-30450971D01*
X58068029Y-30487257D01*
X58213171Y-30487257D01*
X58285743Y-30450971D01*
X58322029Y-30414686D01*
X58358314Y-30342114D01*
X58358314Y-30196971D01*
X58322029Y-30124400D01*
X58285743Y-30088114D01*
X58213171Y-30051829D01*
X58068029Y-30051829D01*
X57995457Y-30088114D01*
X57959171Y-30124400D01*
X57922886Y-30196971D01*
X57596314Y-29362400D02*
X57596314Y-29725257D01*
X57959171Y-29761543D01*
X57922886Y-29725257D01*
X57886600Y-29652686D01*
X57886600Y-29471257D01*
X57922886Y-29398686D01*
X57959171Y-29362400D01*
X58031743Y-29326115D01*
X58213171Y-29326115D01*
X58285743Y-29362400D01*
X58322029Y-29398686D01*
X58358314Y-29471257D01*
X58358314Y-29652686D01*
X58322029Y-29725257D01*
X58285743Y-29761543D01*
X55059943Y-29046714D02*
X55567943Y-29808714D01*
X55567943Y-29046714D02*
X55059943Y-29808714D01*
X56257371Y-29808714D02*
X55821943Y-29808714D01*
X56039657Y-29808714D02*
X56039657Y-29046714D01*
X55967086Y-29155571D01*
X55894514Y-29228143D01*
X55821943Y-29264429D01*
X55321201Y-26172886D02*
X55357487Y-26136600D01*
X55430058Y-26100314D01*
X55611487Y-26100314D01*
X55684058Y-26136600D01*
X55720344Y-26172886D01*
X55756629Y-26245457D01*
X55756629Y-26318029D01*
X55720344Y-26426886D01*
X55284915Y-26862314D01*
X55756629Y-26862314D01*
X56409772Y-26100314D02*
X56264629Y-26100314D01*
X56192058Y-26136600D01*
X56155772Y-26172886D01*
X56083201Y-26281743D01*
X56046915Y-26426886D01*
X56046915Y-26717171D01*
X56083201Y-26789743D01*
X56119486Y-26826029D01*
X56192058Y-26862314D01*
X56337201Y-26862314D01*
X56409772Y-26826029D01*
X56446058Y-26789743D01*
X56482343Y-26717171D01*
X56482343Y-26535743D01*
X56446058Y-26463171D01*
X56409772Y-26426886D01*
X56337201Y-26390600D01*
X56192058Y-26390600D01*
X56119486Y-26426886D01*
X56083201Y-26463171D01*
X56046915Y-26535743D01*
X56808915Y-26862314D02*
X56808915Y-26100314D01*
X57062915Y-26644600D01*
X57316915Y-26100314D01*
X57316915Y-26862314D01*
X49954544Y-28284714D02*
X49954544Y-28901571D01*
X49990829Y-28974143D01*
X50027115Y-29010429D01*
X50099686Y-29046714D01*
X50244829Y-29046714D01*
X50317401Y-29010429D01*
X50353686Y-28974143D01*
X50389972Y-28901571D01*
X50389972Y-28284714D01*
X50643972Y-28284714D02*
X51079401Y-28284714D01*
X50861687Y-29046714D02*
X50861687Y-28284714D01*
X51260829Y-28284714D02*
X51768829Y-29046714D01*
X51768829Y-28284714D02*
X51260829Y-29046714D01*
X46623514Y-29561971D02*
X47240371Y-29561971D01*
X47312943Y-29525686D01*
X47349229Y-29489400D01*
X47385514Y-29416829D01*
X47385514Y-29271686D01*
X47349229Y-29199114D01*
X47312943Y-29162829D01*
X47240371Y-29126543D01*
X46623514Y-29126543D01*
X47385514Y-28328257D02*
X47022657Y-28582257D01*
X47385514Y-28763685D02*
X46623514Y-28763685D01*
X46623514Y-28473400D01*
X46659800Y-28400828D01*
X46696086Y-28364543D01*
X46768657Y-28328257D01*
X46877514Y-28328257D01*
X46950086Y-28364543D01*
X46986371Y-28400828D01*
X47022657Y-28473400D01*
X47022657Y-28763685D01*
X46623514Y-28074257D02*
X47385514Y-27566257D01*
X46623514Y-27566257D02*
X47385514Y-28074257D01*
X58155114Y-35179000D02*
X58082543Y-35142714D01*
X57973686Y-35142714D01*
X57864829Y-35179000D01*
X57792257Y-35251571D01*
X57755972Y-35324143D01*
X57719686Y-35469286D01*
X57719686Y-35578143D01*
X57755972Y-35723286D01*
X57792257Y-35795857D01*
X57864829Y-35868429D01*
X57973686Y-35904714D01*
X58046257Y-35904714D01*
X58155114Y-35868429D01*
X58191400Y-35832143D01*
X58191400Y-35578143D01*
X58046257Y-35578143D01*
X58663114Y-35142714D02*
X58735686Y-35142714D01*
X58808257Y-35179000D01*
X58844543Y-35215286D01*
X58880829Y-35287857D01*
X58917114Y-35433000D01*
X58917114Y-35614429D01*
X58880829Y-35759571D01*
X58844543Y-35832143D01*
X58808257Y-35868429D01*
X58735686Y-35904714D01*
X58663114Y-35904714D01*
X58590543Y-35868429D01*
X58554257Y-35832143D01*
X58517972Y-35759571D01*
X58481686Y-35614429D01*
X58481686Y-35433000D01*
X58517972Y-35287857D01*
X58554257Y-35215286D01*
X58590543Y-35179000D01*
X58663114Y-35142714D01*
X48289029Y-33491714D02*
X48289029Y-34108571D01*
X48325314Y-34181143D01*
X48361600Y-34217429D01*
X48434171Y-34253714D01*
X48579314Y-34253714D01*
X48651886Y-34217429D01*
X48688171Y-34181143D01*
X48724457Y-34108571D01*
X48724457Y-33491714D01*
X49051029Y-33564286D02*
X49087315Y-33528000D01*
X49159886Y-33491714D01*
X49341315Y-33491714D01*
X49413886Y-33528000D01*
X49450172Y-33564286D01*
X49486457Y-33636857D01*
X49486457Y-33709429D01*
X49450172Y-33818286D01*
X49014743Y-34253714D01*
X49486457Y-34253714D01*
X48325314Y-36811857D02*
X48325314Y-37247285D01*
X48325314Y-37029571D02*
X47563314Y-37029571D01*
X47672171Y-37102142D01*
X47744743Y-37174714D01*
X47781029Y-37247285D01*
X47889886Y-36376428D02*
X47853600Y-36449000D01*
X47817314Y-36485285D01*
X47744743Y-36521571D01*
X47708457Y-36521571D01*
X47635886Y-36485285D01*
X47599600Y-36449000D01*
X47563314Y-36376428D01*
X47563314Y-36231285D01*
X47599600Y-36158714D01*
X47635886Y-36122428D01*
X47708457Y-36086143D01*
X47744743Y-36086143D01*
X47817314Y-36122428D01*
X47853600Y-36158714D01*
X47889886Y-36231285D01*
X47889886Y-36376428D01*
X47926171Y-36449000D01*
X47962457Y-36485285D01*
X48035029Y-36521571D01*
X48180171Y-36521571D01*
X48252743Y-36485285D01*
X48289029Y-36449000D01*
X48325314Y-36376428D01*
X48325314Y-36231285D01*
X48289029Y-36158714D01*
X48252743Y-36122428D01*
X48180171Y-36086143D01*
X48035029Y-36086143D01*
X47962457Y-36122428D01*
X47926171Y-36158714D01*
X47889886Y-36231285D01*
X47635886Y-35795857D02*
X47599600Y-35759571D01*
X47563314Y-35687000D01*
X47563314Y-35505571D01*
X47599600Y-35433000D01*
X47635886Y-35396714D01*
X47708457Y-35360429D01*
X47781029Y-35360429D01*
X47889886Y-35396714D01*
X48325314Y-35832143D01*
X48325314Y-35360429D01*
X47817314Y-34707286D02*
X48325314Y-34707286D01*
X47527029Y-34888715D02*
X48071314Y-35070143D01*
X48071314Y-34598429D01*
D15*
X54091114Y-27236056D02*
X53329114Y-27236056D01*
X53873400Y-26982056D01*
X53329114Y-26728056D01*
X54091114Y-26728056D01*
X54091114Y-25966057D02*
X54091114Y-26401485D01*
X54091114Y-26183771D02*
X53329114Y-26183771D01*
X53437971Y-26256342D01*
X53510543Y-26328914D01*
X53546829Y-26401485D01*
X58764714Y-28658456D02*
X58002714Y-28658456D01*
X58547000Y-28404456D01*
X58002714Y-28150456D01*
X58764714Y-28150456D01*
X58075286Y-27823885D02*
X58039000Y-27787599D01*
X58002714Y-27715028D01*
X58002714Y-27533599D01*
X58039000Y-27461028D01*
X58075286Y-27424742D01*
X58147857Y-27388457D01*
X58220429Y-27388457D01*
X58329286Y-27424742D01*
X58764714Y-27860171D01*
X58764714Y-27388457D01*
X52908200Y-37737143D02*
X52871914Y-37773429D01*
X52763057Y-37809714D01*
X52690486Y-37809714D01*
X52581629Y-37773429D01*
X52509057Y-37700857D01*
X52472772Y-37628286D01*
X52436486Y-37483143D01*
X52436486Y-37374286D01*
X52472772Y-37229143D01*
X52509057Y-37156571D01*
X52581629Y-37084000D01*
X52690486Y-37047714D01*
X52763057Y-37047714D01*
X52871914Y-37084000D01*
X52908200Y-37120286D01*
X53597629Y-37047714D02*
X53234772Y-37047714D01*
X53198486Y-37410571D01*
X53234772Y-37374286D01*
X53307343Y-37338000D01*
X53488772Y-37338000D01*
X53561343Y-37374286D01*
X53597629Y-37410571D01*
X53633914Y-37483143D01*
X53633914Y-37664571D01*
X53597629Y-37737143D01*
X53561343Y-37773429D01*
X53488772Y-37809714D01*
X53307343Y-37809714D01*
X53234772Y-37773429D01*
X53198486Y-37737143D01*
X52922714Y-26746200D02*
X52559857Y-27000200D01*
X52922714Y-27181628D02*
X52160714Y-27181628D01*
X52160714Y-26891343D01*
X52197000Y-26818771D01*
X52233286Y-26782486D01*
X52305857Y-26746200D01*
X52414714Y-26746200D01*
X52487286Y-26782486D01*
X52523571Y-26818771D01*
X52559857Y-26891343D01*
X52559857Y-27181628D01*
X52922714Y-26020486D02*
X52922714Y-26455914D01*
X52922714Y-26238200D02*
X52160714Y-26238200D01*
X52269571Y-26310771D01*
X52342143Y-26383343D01*
X52378429Y-26455914D01*
X54853114Y-36804600D02*
X54490257Y-37058600D01*
X54853114Y-37240028D02*
X54091114Y-37240028D01*
X54091114Y-36949743D01*
X54127400Y-36877171D01*
X54163686Y-36840886D01*
X54236257Y-36804600D01*
X54345114Y-36804600D01*
X54417686Y-36840886D01*
X54453971Y-36877171D01*
X54490257Y-36949743D01*
X54490257Y-37240028D01*
X54163686Y-36514314D02*
X54127400Y-36478028D01*
X54091114Y-36405457D01*
X54091114Y-36224028D01*
X54127400Y-36151457D01*
X54163686Y-36115171D01*
X54236257Y-36078886D01*
X54308829Y-36078886D01*
X54417686Y-36115171D01*
X54853114Y-36550600D01*
X54853114Y-36078886D01*
X58191400Y-34888714D02*
X57937400Y-34525857D01*
X57755972Y-34888714D02*
X57755972Y-34126714D01*
X58046257Y-34126714D01*
X58118829Y-34163000D01*
X58155114Y-34199286D01*
X58191400Y-34271857D01*
X58191400Y-34380714D01*
X58155114Y-34453286D01*
X58118829Y-34489571D01*
X58046257Y-34525857D01*
X57755972Y-34525857D01*
X58880829Y-34126714D02*
X58517972Y-34126714D01*
X58481686Y-34489571D01*
X58517972Y-34453286D01*
X58590543Y-34417000D01*
X58771972Y-34417000D01*
X58844543Y-34453286D01*
X58880829Y-34489571D01*
X58917114Y-34562143D01*
X58917114Y-34743571D01*
X58880829Y-34816143D01*
X58844543Y-34852429D01*
X58771972Y-34888714D01*
X58590543Y-34888714D01*
X58517972Y-34852429D01*
X58481686Y-34816143D01*
X50818143Y-35687000D02*
X50854429Y-35723286D01*
X50890714Y-35832143D01*
X50890714Y-35904714D01*
X50854429Y-36013571D01*
X50781857Y-36086143D01*
X50709286Y-36122428D01*
X50564143Y-36158714D01*
X50455286Y-36158714D01*
X50310143Y-36122428D01*
X50237571Y-36086143D01*
X50165000Y-36013571D01*
X50128714Y-35904714D01*
X50128714Y-35832143D01*
X50165000Y-35723286D01*
X50201286Y-35687000D01*
X50128714Y-35033857D02*
X50128714Y-35179000D01*
X50165000Y-35251571D01*
X50201286Y-35287857D01*
X50310143Y-35360428D01*
X50455286Y-35396714D01*
X50745571Y-35396714D01*
X50818143Y-35360428D01*
X50854429Y-35324143D01*
X50890714Y-35251571D01*
X50890714Y-35106428D01*
X50854429Y-35033857D01*
X50818143Y-34997571D01*
X50745571Y-34961286D01*
X50564143Y-34961286D01*
X50491571Y-34997571D01*
X50455286Y-35033857D01*
X50419000Y-35106428D01*
X50419000Y-35251571D01*
X50455286Y-35324143D01*
X50491571Y-35360428D01*
X50564143Y-35396714D01*
D13*
X48684544Y-30367514D02*
X48684544Y-29605514D01*
X48938544Y-30149800D01*
X49192544Y-29605514D01*
X49192544Y-30367514D01*
X49482829Y-29605514D02*
X49954543Y-29605514D01*
X49700543Y-29895800D01*
X49809401Y-29895800D01*
X49881972Y-29932086D01*
X49918258Y-29968371D01*
X49954543Y-30040943D01*
X49954543Y-30222371D01*
X49918258Y-30294943D01*
X49881972Y-30331229D01*
X49809401Y-30367514D01*
X49591686Y-30367514D01*
X49519115Y-30331229D01*
X49482829Y-30294943D01*
M02*
